<svg width="24" height="25" viewBox="0 0 24 25" fill="none" xmlns="http://www.w3.org/2000/svg">
<path d="M12 23.31C11.31 23.31 10.66 22.96 10.2 22.35L8.7 20.35C8.67 20.31 8.55 20.26 8.5 20.25H8C3.83 20.25 1.25 19.12 1.25 13.5V8.5C1.25 4.08 3.58 1.75 8 1.75H16C20.42 1.75 22.75 4.08 22.75 8.5V13.5C22.75 17.92 20.42 20.25 16 20.25H15.5C15.42 20.25 15.35 20.29 15.3 20.35L13.8 22.35C13.34 22.96 12.69 23.31 12 23.31ZM8 3.25C4.42 3.25 2.75 4.92 2.75 8.5V13.5C2.75 18.02 4.3 18.75 8 18.75H8.5C9.01 18.75 9.59 19.04 9.9 19.45L11.4 21.45C11.75 21.91 12.25 21.91 12.6 21.45L14.1 19.45C14.43 19.01 14.95 18.75 15.5 18.75H16C19.58 18.75 21.25 17.08 21.25 13.5V8.5C21.25 4.92 19.58 3.25 16 3.25H8Z" fill="#697381"/>
<path d="M12 23.31C11.31 23.31 10.66 22.96 10.2 22.35L8.7 20.35C8.67 20.31 8.55 20.26 8.5 20.25H8C3.83 20.25 1.25 19.12 1.25 13.5V8.5C1.25 4.08 3.58 1.75 8 1.75H16C20.42 1.75 22.75 4.08 22.75 8.5V13.5C22.75 17.92 20.42 20.25 16 20.25H15.5C15.42 20.25 15.35 20.29 15.3 20.35L13.8 22.35C13.34 22.96 12.69 23.31 12 23.31ZM8 3.25C4.42 3.25 2.75 4.92 2.75 8.5V13.5C2.75 18.02 4.3 18.75 8 18.75H8.5C9.01 18.75 9.59 19.04 9.9 19.45L11.4 21.45C11.75 21.91 12.25 21.91 12.6 21.45L14.1 19.45C14.43 19.01 14.95 18.75 15.5 18.75H16C19.58 18.75 21.25 17.08 21.25 13.5V8.5C21.25 4.92 19.58 3.25 16 3.25H8Z" fill="black" fill-opacity="0.2"/>
<path d="M17 9.25H7C6.59 9.25 6.25 8.91 6.25 8.5C6.25 8.09 6.59 7.75 7 7.75H17C17.41 7.75 17.75 8.09 17.75 8.5C17.75 8.91 17.41 9.25 17 9.25Z" fill="#697381"/>
<path d="M17 9.25H7C6.59 9.25 6.25 8.91 6.25 8.5C6.25 8.09 6.59 7.75 7 7.75H17C17.41 7.75 17.75 8.09 17.75 8.5C17.75 8.91 17.41 9.25 17 9.25Z" fill="black" fill-opacity="0.2"/>
<path d="M13 14.25H7C6.59 14.25 6.25 13.91 6.25 13.5C6.25 13.09 6.59 12.75 7 12.75H13C13.41 12.75 13.75 13.09 13.75 13.5C13.75 13.91 13.41 14.25 13 14.25Z" fill="#697381"/>
<path d="M13 14.25H7C6.59 14.25 6.25 13.91 6.25 13.5C6.25 13.09 6.59 12.75 7 12.75H13C13.41 12.75 13.75 13.09 13.75 13.5C13.75 13.91 13.41 14.25 13 14.25Z" fill="black" fill-opacity="0.2"/>
</svg>
