<svg width="24" height="25" viewBox="0 0 24 25" fill="none" xmlns="http://www.w3.org/2000/svg">
<path d="M17 23.25H7C3.35 23.25 1.25 21.15 1.25 17.5V13.5C1.25 9.9 3.17003 8.56 4.78003 8.06C5.43003 7.85 6.18 7.75 7 7.75H17C17.82 7.75 18.57 7.86001 19.23 8.07001C20.83 8.56001 22.75 9.91 22.75 13.5V17.5C22.75 21.15 20.65 23.25 17 23.25ZM7 9.25C6.34 9.25 5.73998 9.33 5.22998 9.5C3.55998 10.01 2.75 11.32 2.75 13.5V17.5C2.75 20.36 4.14 21.75 7 21.75H17C19.86 21.75 21.25 20.36 21.25 17.5V13.5C21.25 11.32 20.44 10.01 18.78 9.5C18.26 9.33 17.66 9.25 17 9.25H7Z" fill="#2464AE"/>
<path d="M19 9.53003C18.92 9.53003 18.85 9.51999 18.77 9.48999C18.26 9.32999 17.66 9.23999 17 9.23999H7C6.34 9.23999 5.73998 9.31999 5.22998 9.48999C4.99998 9.55999 4.75 9.52 4.56 9.38C4.37 9.24001 4.25 9.01002 4.25 8.77002V7.5C4.25 5.98 5.48 4.75 7 4.75H17C18.52 4.75 19.75 5.98 19.75 7.5V8.78003C19.75 9.02003 19.64 9.24001 19.44 9.39001C19.31 9.48001 19.16 9.53003 19 9.53003ZM7 6.25C6.31 6.25 5.75 6.81 5.75 7.5V7.84003C6.14 7.78003 6.56 7.75 7 7.75H17C17.44 7.75 17.86 7.78003 18.25 7.84003V7.5C18.25 6.81 17.69 6.25 17 6.25H7Z" fill="#2464AE"/>
<path d="M16 6.25H8C7.59 6.25 7.25 5.91 7.25 5.5V4.01001C7.25 2.76001 8.26001 1.75 9.51001 1.75H14.49C15.74 1.75 16.75 2.76001 16.75 4.01001V5.5C16.75 5.91 16.41 6.25 16 6.25ZM8.75 4.75H15.25V4.01001C15.25 3.59001 14.91 3.25 14.49 3.25H9.51001C9.09001 3.25 8.75 3.59001 8.75 4.01001V4.75Z" fill="#2464AE"/>
</svg>
