<svg width="24" height="25" viewBox="0 0 24 25" fill="none" xmlns="http://www.w3.org/2000/svg">
<path d="M9.16055 12.12C9.13055 12.12 9.11055 12.12 9.08055 12.12C9.03055 12.11 8.96055 12.11 8.90055 12.12C6.00055 12.03 3.81055 9.75 3.81055 6.94C3.81055 4.08 6.14055 1.75 9.00055 1.75C11.8605 1.75 14.1905 4.08 14.1905 6.94C14.1805 9.75 11.9805 12.03 9.19055 12.12C9.18055 12.12 9.17055 12.12 9.16055 12.12ZM9.00055 3.25C6.97055 3.25 5.31055 4.91 5.31055 6.94C5.31055 8.94 6.87055 10.55 8.86055 10.62C8.92055 10.61 9.05055 10.61 9.18055 10.62C11.1405 10.53 12.6805 8.92 12.6905 6.94C12.6905 4.91 11.0305 3.25 9.00055 3.25Z" fill="#697381"/>
<path d="M9.16055 12.12C9.13055 12.12 9.11055 12.12 9.08055 12.12C9.03055 12.11 8.96055 12.11 8.90055 12.12C6.00055 12.03 3.81055 9.75 3.81055 6.94C3.81055 4.08 6.14055 1.75 9.00055 1.75C11.8605 1.75 14.1905 4.08 14.1905 6.94C14.1805 9.75 11.9805 12.03 9.19055 12.12C9.18055 12.12 9.17055 12.12 9.16055 12.12ZM9.00055 3.25C6.97055 3.25 5.31055 4.91 5.31055 6.94C5.31055 8.94 6.87055 10.55 8.86055 10.62C8.92055 10.61 9.05055 10.61 9.18055 10.62C11.1405 10.53 12.6805 8.92 12.6905 6.94C12.6905 4.91 11.0305 3.25 9.00055 3.25Z" fill="black" fill-opacity="0.2"/>
<path d="M16.5404 12.25C16.5104 12.25 16.4804 12.25 16.4504 12.24C16.0404 12.28 15.6204 11.99 15.5804 11.58C15.5404 11.17 15.7904 10.8 16.2004 10.75C16.3204 10.74 16.4504 10.74 16.5604 10.74C18.0204 10.66 19.1604 9.46 19.1604 7.99C19.1604 6.47 17.9304 5.24 16.4104 5.24C16.0004 5.25 15.6604 4.91 15.6604 4.5C15.6604 4.09 16.0004 3.75 16.4104 3.75C18.7504 3.75 20.6604 5.66 20.6604 8C20.6604 10.3 18.8604 12.16 16.5704 12.25C16.5604 12.25 16.5504 12.25 16.5404 12.25Z" fill="#697381"/>
<path d="M16.5404 12.25C16.5104 12.25 16.4804 12.25 16.4504 12.24C16.0404 12.28 15.6204 11.99 15.5804 11.58C15.5404 11.17 15.7904 10.8 16.2004 10.75C16.3204 10.74 16.4504 10.74 16.5604 10.74C18.0204 10.66 19.1604 9.46 19.1604 7.99C19.1604 6.47 17.9304 5.24 16.4104 5.24C16.0004 5.25 15.6604 4.91 15.6604 4.5C15.6604 4.09 16.0004 3.75 16.4104 3.75C18.7504 3.75 20.6604 5.66 20.6604 8C20.6604 10.3 18.8604 12.16 16.5704 12.25C16.5604 12.25 16.5504 12.25 16.5404 12.25Z" fill="black" fill-opacity="0.2"/>
<path d="M9.16961 23.05C7.20961 23.05 5.23961 22.55 3.74961 21.55C2.35961 20.63 1.59961 19.37 1.59961 18C1.59961 16.63 2.35961 15.36 3.74961 14.43C6.74961 12.44 11.6096 12.44 14.5896 14.43C15.9696 15.35 16.7396 16.61 16.7396 17.98C16.7396 19.35 15.9796 20.62 14.5896 21.55C13.0896 22.55 11.1296 23.05 9.16961 23.05ZM4.57961 15.69C3.61961 16.33 3.09961 17.15 3.09961 18.01C3.09961 18.86 3.62961 19.68 4.57961 20.31C7.06961 21.98 11.2696 21.98 13.7596 20.31C14.7196 19.67 15.2396 18.85 15.2396 17.99C15.2396 17.14 14.7096 16.32 13.7596 15.69C11.2696 14.03 7.06961 14.03 4.57961 15.69Z" fill="#697381"/>
<path d="M9.16961 23.05C7.20961 23.05 5.23961 22.55 3.74961 21.55C2.35961 20.63 1.59961 19.37 1.59961 18C1.59961 16.63 2.35961 15.36 3.74961 14.43C6.74961 12.44 11.6096 12.44 14.5896 14.43C15.9696 15.35 16.7396 16.61 16.7396 17.98C16.7396 19.35 15.9796 20.62 14.5896 21.55C13.0896 22.55 11.1296 23.05 9.16961 23.05ZM4.57961 15.69C3.61961 16.33 3.09961 17.15 3.09961 18.01C3.09961 18.86 3.62961 19.68 4.57961 20.31C7.06961 21.98 11.2696 21.98 13.7596 20.31C14.7196 19.67 15.2396 18.85 15.2396 17.99C15.2396 17.14 14.7096 16.32 13.7596 15.69C11.2696 14.03 7.06961 14.03 4.57961 15.69Z" fill="black" fill-opacity="0.2"/>
<path d="M18.3402 21.25C17.9902 21.25 17.6802 21.01 17.6102 20.65C17.5302 20.24 17.7902 19.85 18.1902 19.76C18.8202 19.63 19.4002 19.38 19.8502 19.03C20.4202 18.6 20.7302 18.06 20.7302 17.49C20.7302 16.92 20.4202 16.38 19.8602 15.96C19.4202 15.62 18.8702 15.38 18.2202 15.23C17.8202 15.14 17.5602 14.74 17.6502 14.33C17.7402 13.93 18.1402 13.67 18.5502 13.76C19.4102 13.95 20.1602 14.29 20.7702 14.76C21.7002 15.46 22.2302 16.45 22.2302 17.49C22.2302 18.53 21.6902 19.52 20.7602 20.23C20.1402 20.71 19.3602 21.06 18.5002 21.23C18.4402 21.25 18.3902 21.25 18.3402 21.25Z" fill="#697381"/>
<path d="M18.3402 21.25C17.9902 21.25 17.6802 21.01 17.6102 20.65C17.5302 20.24 17.7902 19.85 18.1902 19.76C18.8202 19.63 19.4002 19.38 19.8502 19.03C20.4202 18.6 20.7302 18.06 20.7302 17.49C20.7302 16.92 20.4202 16.38 19.8602 15.96C19.4202 15.62 18.8702 15.38 18.2202 15.23C17.8202 15.14 17.5602 14.74 17.6502 14.33C17.7402 13.93 18.1402 13.67 18.5502 13.76C19.4102 13.95 20.1602 14.29 20.7702 14.76C21.7002 15.46 22.2302 16.45 22.2302 17.49C22.2302 18.53 21.6902 19.52 20.7602 20.23C20.1402 20.71 19.3602 21.06 18.5002 21.23C18.4402 21.25 18.3902 21.25 18.3402 21.25Z" fill="black" fill-opacity="0.2"/>
</svg>
