<svg width="24" height="25" viewBox="0 0 24 25" fill="current" stroke="current" xmlns="http://www.w3.org/2000/svg">
<path d="M14 22.75H10C6.7 22.75 4.71 22.09 4.34 18.74C4.28 18.29 4.25 17.75 4.25 17V8C4.25 7.25 4.28 6.7 4.35 6.23C4.71 2.91 6.7 2.25 10 2.25H14C17.3 2.25 19.29 2.91 19.66 6.26C19.72 6.71 19.75 7.25 19.75 8V17C19.75 17.75 19.72 18.3 19.65 18.77C19.29 22.09 17.3 22.75 14 22.75ZM10 3.75C6.69 3.75 6.06 4.42 5.83 6.42C5.78 6.84 5.75 7.32 5.75 8V17C5.75 17.68 5.78 18.16 5.83 18.55C6.05 20.58 6.69 21.25 10 21.25H14C17.31 21.25 17.94 20.58 18.17 18.58C18.23 18.16 18.25 17.68 18.25 17V8C18.25 7.32 18.22 6.84 18.17 6.45C17.95 4.42 17.31 3.75 14 3.75H10Z" fill="#697381"/>
<path d="M14 22.75H10C6.7 22.75 4.71 22.09 4.34 18.74C4.28 18.29 4.25 17.75 4.25 17V8C4.25 7.25 4.28 6.7 4.35 6.23C4.71 2.91 6.7 2.25 10 2.25H14C17.3 2.25 19.29 2.91 19.66 6.26C19.72 6.71 19.75 7.25 19.75 8V17C19.75 17.75 19.72 18.3 19.65 18.77C19.29 22.09 17.3 22.75 14 22.75ZM10 3.75C6.69 3.75 6.06 4.42 5.83 6.42C5.78 6.84 5.75 7.32 5.75 8V17C5.75 17.68 5.78 18.16 5.83 18.55C6.05 20.58 6.69 21.25 10 21.25H14C17.31 21.25 17.94 20.58 18.17 18.58C18.23 18.16 18.25 17.68 18.25 17V8C18.25 7.32 18.22 6.84 18.17 6.45C17.95 4.42 17.31 3.75 14 3.75H10Z" fill="black" fill-opacity="0.2"/>
<path d="M2 20.75C1.59 20.75 1.25 20.41 1.25 20V5C1.25 4.59 1.59 4.25 2 4.25C2.41 4.25 2.75 4.59 2.75 5V20C2.75 20.41 2.41 20.75 2 20.75Z" fill="#697381"/>
<path d="M2 20.75C1.59 20.75 1.25 20.41 1.25 20V5C1.25 4.59 1.59 4.25 2 4.25C2.41 4.25 2.75 4.59 2.75 5V20C2.75 20.41 2.41 20.75 2 20.75Z" fill="black" fill-opacity="0.2"/>
<path d="M22 20.25C21.59 20.25 21.25 19.91 21.25 19.5V4.5C21.25 4.09 21.59 3.75 22 3.75C22.41 3.75 22.75 4.09 22.75 4.5V19.5C22.75 19.91 22.41 20.25 22 20.25Z" fill="#697381"/>
<path d="M22 20.25C21.59 20.25 21.25 19.91 21.25 19.5V4.5C21.25 4.09 21.59 3.75 22 3.75C22.41 3.75 22.75 4.09 22.75 4.5V19.5C22.75 19.91 22.41 20.25 22 20.25Z" fill="black" fill-opacity="0.2"/>
</svg>
